# xmcd
# 
# Track frame offsets:
#     182
#     44223
#     79135
#     112360
#     161445
#     225260
#     259548
#     303353
# 
# Disc length: 4551
# 
# Revision: 19
# Processed by: cddbd v1.5.2PL0 Copyright (c) Steve Scherf et al.
# Submitted via: BonkEnc v1.0.8
# 
DISCID=6211c508
DTITLE=Autechre - Anvil Vapre, Garbage
DYEAR=1996
DGENRE=Electronic
TTITLE0=Second Bad Vilbel
TTITLE1=Second Scepe
TTITLE2=Second Scout
TTITLE3=Second Peng
TTITLE4=Garbagemx36
TTITLE5=PIOBmx19
TTITLE6=Bronchusevenmx24
TTITLE7=Vletrmx21
EXTD=Disc 2 of Tri Repetae++ set from TVT Records YEAR: 1996
EXTT0=
EXTT1=
EXTT2=
EXTT3=
EXTT4=
EXTT5=
EXTT6=
EXTT7=
PLAYORDER=
